<?xml version="1.0" encoding="UTF-8"?><svg id="Layer_2" xmlns="http://www.w3.org/2000/svg" xmlns:xlink="http://www.w3.org/1999/xlink" viewBox="0 0 150 63.6"><defs><style>.cls-1{fill:url(#linear-gradient);}.cls-2{fill:#989898;}.cls-3{fill:#2f61b2;}.cls-4{fill:url(#linear-gradient-3);}.cls-5{fill:url(#linear-gradient-4);}.cls-6{fill:url(#linear-gradient-2);}</style><linearGradient id="linear-gradient" x1="45.21" y1="24.63" x2="94.81" y2="24.63" gradientUnits="userSpaceOnUse"><stop offset="0" stop-color="#4076ed"/><stop offset="1" stop-color="#3e95ff"/></linearGradient><linearGradient id="linear-gradient-2" x1="0" y1="36.95" x2="24.8" y2="36.95" gradientUnits="userSpaceOnUse"><stop offset="0" stop-color="#4076ed"/><stop offset=".5" stop-color="#3e95ff"/></linearGradient><linearGradient id="linear-gradient-3" x1="0" y1="12.32" x2="24.8" y2="12.32" gradientUnits="userSpaceOnUse"><stop offset="0" stop-color="#4076ed"/><stop offset=".5" stop-color="#3e95ff"/></linearGradient><linearGradient id="linear-gradient-4" x1="97.31" y1="24.66" x2="129.12" y2="24.66" xlink:href="#linear-gradient"/></defs><g id="koa-logo-150x75"><g><path class="cls-3" d="M38.19,0h0c-1.19,0-2.33,.47-3.18,1.31L14.75,21.43c-1.78,1.76-1.78,4.64,0,6.4l20.26,20.12c.84,.84,1.99,1.31,3.18,1.31h0c4.03,0,6.03-4.87,3.18-7.71L24.33,24.63,41.37,7.71C44.22,4.87,42.22,0,38.19,0Z"/><path class="cls-1" d="M70.01,0C56.31,0,45.21,11.03,45.21,24.63s11.1,24.63,24.8,24.63,24.8-11.03,24.8-24.63S83.71,0,70.01,0Zm0,36.55c-6.63,0-12-5.34-12-11.92s5.37-11.92,12-11.92,12,5.34,12,11.92-5.37,11.92-12,11.92Z"/><polygon class="cls-6" points="0 49.26 24.8 49.26 0 24.63 0 49.26"/><polygon class="cls-4" points="0 0 0 24.63 24.8 0 0 0"/><path class="cls-3" d="M149.92,49.26h-14.07l-12.34-29.07-5.22-12.3c-1.61-3.79,1.25-7.96,5.37-7.83,1.06,.03,2.07,.37,2.93,.93,.47,.31,.89,.69,1.25,1.12,.02,.03,.05,.06,.07,.09,.03,.03,.05,.07,.08,.1,0,0,0,0,0,.01,.04,.05,.07,.1,.11,.15,.03,.04,.06,.08,.08,.12,0,0,0,0,0,0,.02,.03,.04,.05,.05,.08,.05,.08,.1,.17,.15,.26,.02,.03,.04,.07,.06,.1,0,.01,.01,.02,.02,.04,.02,.03,.03,.06,.04,.09,.02,.04,.04,.09,.06,.13,0,0,0,.02,.01,.03l21.33,45.94Z"/><path class="cls-5" d="M128.68,7.86l-5.16,12.33-12.17,29.07h-14.04L118.36,3.34c.44-.97,1.14-1.77,1.99-2.34,.85-.57,1.86-.91,2.92-.95,1.98-.07,3.67,.85,4.71,2.25,0,0,0,0,0,.01,.04,.05,.07,.1,.11,.15,.03,.04,.06,.08,.08,.12,0,0,0,0,0,0,.02,.03,.04,.05,.05,.08,.05,.08,.1,.17,.15,.26,.02,.03,.04,.07,.06,.1,0,.01,.01,.02,.02,.04,.02,.03,.03,.06,.04,.09,.02,.04,.04,.09,.06,.13,.64,1.36,.75,3,.09,4.56Z"/><g><path class="cls-2" d="M2.3,62.14v.23c0,.36-.09,.64-.28,.86-.19,.22-.44,.32-.76,.32s-.58-.11-.77-.33-.29-.5-.29-.85v-7.01c0-.36,.11-.64,.3-.85,.19-.21,.44-.32,.76-.32s.58,.11,.76,.32c.19,.22,.28,.5,.28,.85v6.77Z"/><path class="cls-2" d="M16.99,55.6v-.23c0-.36,.11-.64,.3-.85,.19-.21,.44-.32,.75-.32s.58,.11,.77,.32c.19,.22,.29,.5,.29,.85v6.84c0,.26,0,.44-.03,.56-.02,.11-.06,.22-.14,.32-.1,.16-.24,.28-.41,.37-.17,.09-.35,.14-.54,.14s-.36-.04-.49-.13c-.13-.09-.3-.26-.5-.53l-3.74-4.8v4.24c0,.36-.09,.64-.28,.86-.19,.22-.44,.32-.76,.32s-.58-.11-.77-.33-.29-.5-.29-.85v-6.95c0-.2,.01-.36,.03-.46,.02-.11,.07-.21,.14-.31,.2-.3,.48-.45,.83-.45,.19,0,.36,.04,.5,.12,.14,.08,.3,.24,.49,.48l3.85,4.86v-4.06Z"/><path class="cls-2" d="M31.8,62.14v.23c0,.36-.11,.64-.3,.86-.19,.22-.44,.32-.76,.32s-.56-.11-.76-.33c-.19-.22-.29-.5-.29-.85v-6.17h-1.71c-.33,0-.59-.1-.78-.27-.19-.17-.29-.4-.29-.7s.1-.52,.3-.7c.2-.18,.46-.27,.78-.27h5.52c.32,0,.58,.1,.78,.27,.2,.17,.3,.4,.3,.7s-.1,.53-.3,.7c-.2,.17-.46,.26-.78,.26h-1.71v5.93Z"/><path class="cls-2" d="M44.5,57.91h2.34c.29,0,.53,.09,.71,.24,.18,.15,.27,.36,.27,.63s-.09,.48-.27,.64c-.18,.16-.42,.24-.71,.24h-2.34v1.87h3.01c.32,0,.58,.1,.78,.27,.2,.17,.3,.4,.3,.7s-.1,.53-.3,.7c-.2,.17-.46,.26-.78,.26h-3.9c-.82-.02-1.22-.43-1.22-1.22v-6.73c.02-.82,.43-1.22,1.22-1.22h3.83c.32,0,.58,.1,.77,.27,.19,.17,.29,.4,.29,.7s-.1,.53-.29,.7c-.19,.17-.45,.26-.77,.26h-2.95v1.71Z"/><path class="cls-2" d="M58.69,62.14v.23c0,.36-.09,.64-.28,.86-.19,.22-.44,.32-.76,.32s-.58-.11-.77-.33-.29-.5-.29-.85v-6.87c.02-.82,.43-1.22,1.22-1.22h1.67c.54,0,.99,.04,1.35,.13,.36,.09,.68,.23,.98,.42,.48,.31,.85,.72,1.13,1.22,.28,.5,.41,1.03,.41,1.58,0,.64-.18,1.2-.54,1.67-.36,.47-.88,.82-1.55,1.06l1.57,1.14c.39,.29,.58,.62,.58,.98,0,.29-.1,.55-.3,.76-.2,.21-.44,.32-.74,.32-.23,0-.47-.1-.73-.3l-2.95-2.41v1.31Zm.8-3.12c.31,0,.55-.02,.72-.05,.17-.03,.32-.08,.45-.16,.2-.13,.36-.3,.47-.5,.11-.21,.17-.43,.17-.67,0-.27-.07-.51-.21-.73-.14-.22-.33-.39-.57-.51-.06-.03-.13-.05-.19-.07-.06-.02-.13-.03-.2-.04-.07,0-.17-.02-.28-.02-.11,0-.25,0-.41,0h-.76v2.75h.8Z"/><path class="cls-2" d="M73.05,61.89l-.29,.67-.08,.21c-.23,.5-.57,.74-1.03,.74-.28,0-.53-.1-.74-.3-.21-.2-.32-.43-.32-.71,0-.17,.05-.37,.15-.59l.1-.21,3.04-6.81c.19-.43,.53-.65,1-.65,.22,0,.42,.06,.6,.17s.31,.27,.41,.48l3.12,6.79c.1,.22,.17,.38,.19,.48,.03,.1,.04,.22,.04,.34,0,.28-.11,.51-.32,.72-.21,.2-.46,.3-.74,.3-.47,0-.81-.24-1.03-.73l-.1-.22-.32-.69h-3.69Zm1.84-4.47l-1.09,2.64h2.2l-1.11-2.64Z"/><path class="cls-2" d="M86.27,58.86c0-.65,.12-1.26,.37-1.84,.25-.57,.59-1.07,1.02-1.5,.43-.43,.93-.76,1.51-1.01,.57-.25,1.19-.37,1.84-.37,1.1,0,2.1,.37,3,1.1,.27,.22,.46,.42,.57,.59,.11,.17,.17,.37,.17,.58,0,.28-.1,.53-.3,.72-.2,.2-.44,.3-.74,.3-.27,0-.52-.11-.77-.33l-.22-.21c-.23-.21-.5-.37-.8-.49-.3-.11-.61-.17-.94-.17-.36,0-.7,.07-1.02,.21-.32,.14-.6,.33-.83,.57-.23,.24-.42,.53-.56,.85-.14,.32-.21,.66-.21,1.02s.07,.7,.21,1.02c.14,.32,.33,.6,.57,.84,.24,.24,.53,.43,.85,.56,.32,.14,.66,.21,1.02,.21,.29,0,.59-.05,.89-.16,.3-.11,.55-.24,.73-.41l.37-.34c.23-.22,.49-.33,.78-.33s.53,.1,.73,.3c.2,.2,.3,.45,.3,.73s-.17,.61-.5,.94c-.42,.42-.93,.75-1.52,1s-1.19,.36-1.8,.36c-.65,0-1.26-.13-1.84-.38-.57-.25-1.08-.59-1.51-1.02-.43-.43-.77-.93-1.03-1.5-.25-.57-.38-1.19-.38-1.84Z"/><path class="cls-2" d="M106.71,62.14v.23c0,.36-.11,.64-.3,.86-.19,.22-.44,.32-.76,.32s-.56-.11-.76-.33c-.19-.22-.29-.5-.29-.85v-6.17h-1.71c-.33,0-.59-.1-.78-.27-.19-.17-.29-.4-.29-.7s.1-.52,.3-.7c.2-.18,.46-.27,.78-.27h5.52c.32,0,.58,.1,.78,.27,.2,.17,.3,.4,.3,.7s-.1,.53-.3,.7c-.2,.17-.46,.26-.78,.26h-1.71v5.93Z"/><path class="cls-2" d="M119.42,62.14v.23c0,.36-.09,.64-.28,.86-.19,.22-.44,.32-.76,.32s-.58-.11-.77-.33-.29-.5-.29-.85v-7.01c0-.36,.11-.64,.3-.85,.19-.21,.44-.32,.76-.32s.58,.11,.76,.32c.19,.22,.28,.5,.28,.85v6.77Z"/><path class="cls-2" d="M133.66,55.16c.15-.38,.3-.63,.46-.77,.16-.14,.37-.21,.64-.21,.14,0,.27,.03,.39,.08,.12,.06,.23,.13,.33,.22,.1,.09,.17,.2,.23,.32,.06,.12,.08,.25,.08,.39,0,.19-.04,.39-.12,.58l-.1,.21-2.93,6.73c-.24,.53-.58,.8-1.02,.8-.48,0-.83-.27-1.06-.8l-2.9-6.72-.1-.21c-.09-.19-.14-.39-.14-.59,0-.14,.03-.27,.09-.39,.06-.12,.14-.22,.23-.32,.1-.09,.21-.17,.34-.22,.13-.06,.26-.08,.4-.08,.27,0,.48,.07,.64,.21,.16,.14,.31,.4,.46,.78l2.02,5.05,2.05-5.07Z"/><path class="cls-2" d="M145.91,57.91h2.34c.29,0,.53,.09,.71,.24,.18,.15,.27,.36,.27,.63s-.09,.48-.27,.64c-.18,.16-.42,.24-.71,.24h-2.34v1.87h3.01c.32,0,.58,.1,.78,.27,.2,.17,.3,.4,.3,.7s-.1,.53-.3,.7c-.2,.17-.46,.26-.78,.26h-3.9c-.82-.02-1.22-.43-1.22-1.22v-6.73c.02-.82,.43-1.22,1.22-1.22h3.83c.32,0,.58,.1,.77,.27,.19,.17,.29,.4,.29,.7s-.1,.53-.29,.7c-.19,.17-.45,.26-.77,.26h-2.95v1.71Z"/></g></g></g></svg>