<svg xmlns="http://www.w3.org/2000/svg" xmlns:xlink="http://www.w3.org/1999/xlink" viewBox="0 0 251 106.42"><defs><style>.cls-1{fill:url(#linear-gradient);}.cls-2{fill:#989898;}.cls-3{fill:#2f61b2;}.cls-4{fill:url(#linear-gradient-3);}.cls-5{fill:url(#linear-gradient-4);}.cls-6{fill:url(#linear-gradient-2);}</style><linearGradient id="linear-gradient" x1="75.65" y1="41.22" x2="158.65" y2="41.22" gradientUnits="userSpaceOnUse"><stop offset="0" stop-color="#4076ed"/><stop offset="1" stop-color="#3e95ff"/></linearGradient><linearGradient id="linear-gradient-2" x1="0" y1="61.82" x2="41.5" y2="61.82" gradientUnits="userSpaceOnUse"><stop offset="0" stop-color="#4076ed"/><stop offset=".5" stop-color="#3e95ff"/></linearGradient><linearGradient id="linear-gradient-3" x1="0" y1="20.61" x2="41.5" y2="20.61" gradientUnits="userSpaceOnUse"><stop offset="0" stop-color="#4076ed"/><stop offset=".5" stop-color="#3e95ff"/></linearGradient><linearGradient id="linear-gradient-4" x1="162.83" y1="41.26" x2="216.06" y2="41.26" xlink:href="#linear-gradient"/></defs><g id="koa-logo-250x125"><g><path class="cls-3" d="M63.9,0h0c-1.99,0-3.9,.79-5.32,2.19L24.69,35.86c-2.97,2.95-2.97,7.76,0,10.71l33.9,33.67c1.41,1.4,3.33,2.19,5.32,2.19h0c6.74,0,10.1-8.15,5.32-12.9l-28.51-28.32,28.51-28.32C74,8.15,70.64,0,63.9,0Z"/><path class="cls-1" d="M117.15,0C94.23,0,75.65,18.45,75.65,41.22s18.58,41.22,41.5,41.22,41.5-18.45,41.5-41.22S140.07,0,117.15,0Zm0,61.16c-11.09,0-20.08-8.93-20.08-19.94s8.99-19.94,20.08-19.94,20.08,8.93,20.08,19.94-8.99,19.94-20.08,19.94Z"/><polygon class="cls-6" points="0 82.43 41.5 82.43 0 41.22 0 82.43"/><polygon class="cls-4" points="0 0 0 41.22 41.5 0 0 0"/><path class="cls-3" d="M250.87,82.43h-23.55l-20.64-48.64-8.73-20.58c-2.69-6.34,2.1-13.33,8.98-13.11,1.78,.06,3.47,.61,4.9,1.56,.78,.52,1.48,1.15,2.08,1.87,.04,.05,.08,.1,.12,.15,.04,.06,.09,.11,.13,.17,0,0,.01,.01,.02,.02,.06,.08,.12,.17,.18,.25,.05,.07,.09,.14,.14,.2,0,0,0,.01,.01,.02,.03,.05,.06,.09,.09,.14,.09,.14,.17,.28,.26,.43,.03,.06,.06,.11,.09,.17,.01,.02,.02,.04,.03,.06,.03,.05,.05,.1,.07,.14,.04,.07,.07,.15,.11,.22,0,.01,.01,.03,.02,.04l35.68,76.87Z"/><path class="cls-5" d="M215.32,13.15l-8.64,20.64-20.36,48.64h-23.49L198.05,5.58c.74-1.62,1.91-2.96,3.34-3.91,1.43-.95,3.11-1.52,4.89-1.58,3.3-.12,6.13,1.42,7.89,3.77,0,0,.01,.01,.02,.02,.06,.08,.12,.17,.18,.25,.05,.07,.09,.14,.14,.2,0,0,0,.01,.01,.02,.03,.05,.06,.09,.09,.14,.09,.14,.17,.28,.26,.43,.03,.06,.06,.11,.09,.17,.01,.02,.02,.04,.03,.06,.03,.05,.05,.1,.07,.14,.04,.07,.07,.15,.11,.22,1.08,2.28,1.26,5.01,.16,7.64Z"/><g><path class="cls-2" d="M3.85,103.98v.39c0,.6-.16,1.08-.47,1.44-.31,.36-.74,.54-1.28,.54s-.97-.18-1.29-.55-.48-.84-.48-1.43v-11.72c.02-.6,.18-1.07,.5-1.43,.31-.35,.74-.53,1.28-.53s.96,.18,1.28,.54c.31,.36,.47,.83,.47,1.42v11.33Z"/><path class="cls-2" d="M28.43,93.04v-.39c.02-.6,.18-1.07,.5-1.43,.31-.35,.73-.53,1.26-.53s.97,.18,1.29,.54c.32,.36,.48,.83,.48,1.42v11.45c0,.43-.02,.74-.05,.93-.03,.19-.11,.37-.23,.54-.17,.26-.4,.47-.68,.62-.28,.15-.59,.23-.91,.23s-.6-.07-.82-.22c-.22-.15-.5-.44-.84-.89l-6.26-8.04v7.09c0,.6-.16,1.08-.47,1.44-.31,.36-.74,.54-1.28,.54s-.97-.18-1.29-.55-.48-.84-.48-1.43v-11.63c0-.34,.02-.59,.06-.77,.04-.18,.12-.35,.24-.52,.34-.51,.8-.76,1.38-.76,.32,0,.6,.07,.84,.21,.24,.14,.51,.41,.82,.81l6.45,8.13v-6.79Z"/><path class="cls-2" d="M53.21,103.98v.39c-.02,.6-.18,1.08-.5,1.44-.31,.36-.74,.54-1.28,.54s-.94-.18-1.27-.55c-.32-.37-.48-.84-.48-1.43v-10.32h-2.86c-.55-.02-.99-.16-1.31-.45-.32-.28-.48-.67-.48-1.16s.16-.86,.5-1.16c.33-.3,.76-.45,1.3-.45h9.24c.54,.02,.97,.17,1.3,.45,.33,.28,.5,.67,.5,1.16s-.17,.88-.5,1.17c-.33,.29-.76,.44-1.3,.44h-2.86v9.93Z"/><path class="cls-2" d="M74.47,96.91h3.92c.49,.02,.89,.15,1.19,.4,.3,.25,.45,.6,.45,1.05s-.15,.8-.45,1.07c-.3,.27-.69,.4-1.19,.4h-3.92v3.13h5.04c.54,.02,.97,.17,1.3,.45,.33,.28,.5,.67,.5,1.16s-.17,.88-.5,1.17c-.33,.29-.76,.44-1.3,.44h-6.52c-1.37-.03-2.05-.71-2.05-2.05v-11.26c.03-1.37,.71-2.05,2.05-2.05h6.4c.54,.02,.97,.17,1.29,.45,.32,.28,.48,.67,.48,1.16s-.16,.88-.48,1.17c-.32,.29-.75,.44-1.29,.44h-4.93v2.86Z"/><path class="cls-2" d="M98.21,103.98v.39c0,.6-.16,1.08-.47,1.44-.31,.36-.74,.54-1.28,.54s-.97-.18-1.29-.55-.48-.84-.48-1.43v-11.49c.03-1.37,.71-2.05,2.05-2.05h2.79c.91,0,1.66,.07,2.26,.22,.6,.15,1.14,.38,1.64,.7,.8,.52,1.43,1.2,1.89,2.04,.46,.84,.69,1.72,.69,2.64,0,1.07-.3,2-.91,2.79-.61,.78-1.47,1.37-2.59,1.77l2.63,1.91c.64,.49,.97,1.04,.97,1.64,0,.49-.17,.91-.5,1.27-.33,.35-.74,.53-1.23,.53-.38,0-.79-.17-1.22-.51l-4.93-4.03v2.19Zm1.34-5.23c.52,0,.92-.03,1.21-.08,.28-.05,.53-.14,.75-.26,.34-.21,.6-.5,.79-.84,.19-.35,.29-.72,.29-1.12,0-.45-.12-.85-.36-1.22-.24-.37-.56-.65-.96-.85-.11-.05-.21-.08-.31-.12-.1-.03-.21-.05-.33-.07-.12-.02-.28-.03-.46-.03-.18,0-.41-.01-.69-.01h-1.27v4.61h1.34Z"/><path class="cls-2" d="M122.23,103.56l-.48,1.13-.14,.35c-.38,.83-.96,1.24-1.73,1.24-.48,0-.89-.16-1.24-.5-.35-.33-.53-.73-.53-1.19,0-.29,.08-.62,.25-.99l.16-.35,5.09-11.4c.32-.72,.88-1.08,1.68-1.08,.37,0,.7,.09,1,.28s.53,.45,.68,.81l5.23,11.35c.17,.37,.28,.64,.32,.81,.05,.17,.07,.36,.07,.58,0,.46-.18,.86-.53,1.2-.35,.34-.77,.51-1.24,.51-.78,0-1.36-.41-1.73-1.22l-.16-.37-.53-1.15h-6.17Zm3.09-7.49l-1.82,4.42h3.69l-1.87-4.42Z"/><path class="cls-2" d="M144.37,98.49c0-1.09,.21-2.11,.62-3.07,.41-.96,.98-1.8,1.7-2.51,.72-.71,1.56-1.28,2.52-1.69,.96-.41,1.98-.62,3.07-.62,1.84,0,3.52,.61,5.02,1.84,.45,.37,.76,.7,.96,.99,.19,.29,.29,.61,.29,.97,0,.48-.17,.88-.5,1.21-.33,.33-.74,.5-1.23,.5-.45,0-.88-.18-1.29-.55l-.37-.35c-.38-.35-.83-.63-1.34-.82-.51-.19-1.03-.29-1.57-.29-.6,0-1.17,.12-1.7,.35-.54,.23-1,.55-1.39,.96-.39,.41-.7,.88-.93,1.42-.23,.54-.35,1.11-.35,1.7s.12,1.17,.35,1.7c.23,.54,.55,1.01,.96,1.4,.41,.4,.88,.71,1.42,.94,.54,.23,1.11,.35,1.7,.35,.49,0,.99-.09,1.5-.26,.51-.18,.91-.4,1.22-.68l.62-.58c.38-.37,.82-.55,1.31-.55s.88,.17,1.22,.51c.34,.34,.51,.74,.51,1.22s-.28,1.01-.83,1.57c-.71,.71-1.55,1.26-2.55,1.67s-1.99,.61-3.01,.61c-1.09,0-2.12-.21-3.07-.63-.96-.42-1.8-.99-2.52-1.7-.72-.71-1.29-1.55-1.72-2.51-.42-.96-.63-1.98-.63-3.07Z"/><path class="cls-2" d="M178.57,103.98v.39c-.02,.6-.18,1.08-.5,1.44-.31,.36-.74,.54-1.28,.54s-.94-.18-1.27-.55c-.32-.37-.48-.84-.48-1.43v-10.32h-2.86c-.55-.02-.99-.16-1.31-.45-.32-.28-.48-.67-.48-1.16s.16-.86,.5-1.16c.33-.3,.76-.45,1.3-.45h9.24c.54,.02,.97,.17,1.3,.45,.33,.28,.5,.67,.5,1.16s-.17,.88-.5,1.17c-.33,.29-.76,.44-1.3,.44h-2.86v9.93Z"/><path class="cls-2" d="M199.82,103.98v.39c0,.6-.16,1.08-.47,1.44-.31,.36-.74,.54-1.28,.54s-.97-.18-1.29-.55-.48-.84-.48-1.43v-11.72c.02-.6,.18-1.07,.5-1.43,.31-.35,.74-.53,1.28-.53s.96,.18,1.28,.54c.31,.36,.47,.83,.47,1.42v11.33Z"/><path class="cls-2" d="M223.66,92.3c.25-.63,.5-1.06,.77-1.29,.27-.23,.63-.35,1.07-.35,.23,0,.45,.05,.66,.14,.21,.09,.39,.22,.55,.37,.16,.15,.29,.33,.38,.53,.09,.2,.14,.41,.14,.64,0,.32-.07,.64-.21,.97l-.16,.35-4.91,11.26c-.4,.89-.97,1.34-1.7,1.34-.8,0-1.39-.45-1.77-1.34l-4.86-11.24-.16-.35c-.15-.32-.23-.65-.23-.99,0-.23,.05-.45,.15-.64,.1-.2,.23-.38,.39-.53,.16-.15,.35-.28,.56-.37,.21-.09,.44-.14,.67-.14,.45,0,.8,.12,1.07,.36,.27,.24,.53,.67,.77,1.3l3.39,8.45,3.43-8.48Z"/><path class="cls-2" d="M244.16,96.91h3.92c.49,.02,.89,.15,1.19,.4,.3,.25,.45,.6,.45,1.05s-.15,.8-.45,1.07c-.3,.27-.69,.4-1.19,.4h-3.92v3.13h5.04c.54,.02,.97,.17,1.3,.45,.33,.28,.5,.67,.5,1.16s-.17,.88-.5,1.17c-.33,.29-.76,.44-1.3,.44h-6.52c-1.37-.03-2.05-.71-2.05-2.05v-11.26c.03-1.37,.71-2.05,2.05-2.05h6.4c.54,.02,.97,.17,1.29,.45,.32,.28,.48,.67,.48,1.16s-.16,.88-.48,1.17c-.32,.29-.75,.44-1.29,.44h-4.93v2.86Z"/></g></g></g></svg>