<?xml version="1.0" encoding="UTF-8"?><svg id="Layer_2" xmlns="http://www.w3.org/2000/svg" xmlns:xlink="http://www.w3.org/1999/xlink" viewBox="0 0 1874.42 794.71"><defs><style>.cls-1{fill:url(#linear-gradient);}.cls-2{fill:#989898;}.cls-3{fill:#2f61b2;}.cls-4{fill:url(#linear-gradient-3);}.cls-5{fill:url(#linear-gradient-4);}.cls-6{fill:url(#linear-gradient-2);}</style><linearGradient id="linear-gradient" x1="3848.71" y1="713.47" x2="3848.71" y2="713.47" gradientUnits="userSpaceOnUse"><stop offset="0" stop-color="#4076ed"/><stop offset="1" stop-color="#3e95ff"/></linearGradient><linearGradient id="linear-gradient-2" x1="0" y1="461.69" x2="309.89" y2="461.69" gradientUnits="userSpaceOnUse"><stop offset="0" stop-color="#4076ed"/><stop offset=".5" stop-color="#3e95ff"/></linearGradient><linearGradient id="linear-gradient-3" x1="0" y1="153.9" x2="309.89" y2="153.9" gradientUnits="userSpaceOnUse"><stop offset="0" stop-color="#4076ed"/><stop offset=".5" stop-color="#3e95ff"/></linearGradient><linearGradient id="linear-gradient-4" x1="1216" y1="308.1" x2="1613.51" y2="308.1" xlink:href="#linear-gradient"/></defs><g id="koa_logo"><g><path class="cls-3" d="M477.23,0h0c-14.88,0-29.15,5.88-39.71,16.37l-253.15,251.44c-22.19,22.04-22.19,57.93,0,79.96l253.15,251.44c10.56,10.49,24.83,16.37,39.71,16.37h0c50.3,0,75.4-60.89,39.71-96.33l-212.9-211.46,212.9-211.46C552.63,60.89,527.53,0,477.23,0Z"/><path class="cls-1" d="M874.85,0C703.7,0,564.96,137.8,564.96,307.79s138.74,307.79,309.89,307.79,309.89-137.8,309.89-307.79S1046,0,874.85,0Zm0,456.74c-82.82,0-149.96-66.68-149.96-148.94s67.14-148.94,149.96-148.94,149.96,66.68,149.96,148.94-67.14,148.94-149.96,148.94Z"/><polygon class="cls-6" points="0 615.59 309.89 615.59 0 307.79 0 615.59"/><polygon class="cls-4" points="0 0 0 307.79 309.89 0 0 0"/><path class="cls-3" d="M1873.43,615.58h-175.83l-154.14-363.26-65.2-153.66c-20.08-47.33,15.67-99.52,67.06-97.89,13.29,.42,25.9,4.58,36.58,11.64,5.83,3.85,11.08,8.56,15.57,14,.29,.36,.59,.72,.88,1.09,.33,.42,.66,.85,.99,1.29,.04,.05,.08,.1,.12,.16,.46,.62,.91,1.24,1.35,1.88,.35,.5,.7,1.01,1.03,1.52,.03,.04,.05,.08,.08,.12,.22,.34,.44,.68,.66,1.03,.67,1.05,1.3,2.12,1.91,3.2,.23,.42,.46,.84,.69,1.27,.08,.15,.17,.3,.24,.46,.19,.35,.37,.71,.56,1.07,.28,.55,.55,1.11,.81,1.68,.06,.1,.11,.21,.16,.32l266.48,574.08Z"/><path class="cls-5" d="M1607.96,98.22l-64.5,154.1-152.05,363.26h-175.41L1478.99,41.7c5.54-12.09,14.26-22.11,24.91-29.22,10.65-7.11,23.23-11.33,36.53-11.81,24.68-.91,45.81,10.63,58.91,28.12,.04,.05,.08,.1,.12,.16,.46,.62,.91,1.24,1.35,1.88,.35,.5,.7,1.01,1.03,1.52,.03,.04,.05,.08,.08,.12,.22,.34,.44,.68,.66,1.03,.67,1.05,1.3,2.12,1.91,3.2,.23,.42,.46,.84,.69,1.27,.08,.15,.17,.3,.24,.46,.19,.35,.37,.71,.56,1.07,.28,.55,.55,1.11,.81,1.68,8.04,17.04,9.38,37.43,1.17,57.04Z"/><g><path class="cls-2" d="M28.77,776.47v2.92c0,4.47-1.18,8.06-3.53,10.75-2.35,2.7-5.53,4.04-9.55,4.04s-7.22-1.38-9.63-4.13-3.61-6.3-3.61-10.66v-87.55c.11-4.47,1.35-8.03,3.7-10.66,2.35-2.64,5.53-3.96,9.55-3.96s7.19,1.35,9.55,4.04c2.35,2.7,3.53,6.22,3.53,10.58v84.62Z"/><path class="cls-2" d="M212.28,694.77v-2.92c.11-4.47,1.35-8.03,3.7-10.66,2.35-2.64,5.47-3.96,9.37-3.96s7.22,1.35,9.63,4.04c2.41,2.7,3.61,6.22,3.61,10.58v85.48c0,3.21-.12,5.53-.34,6.97-.23,1.43-.8,2.78-1.72,4.04-1.26,1.95-2.95,3.5-5.07,4.64-2.12,1.14-4.39,1.72-6.79,1.72s-4.45-.54-6.11-1.63c-1.66-1.09-3.76-3.29-6.28-6.62l-46.78-60.03v52.98c0,4.47-1.18,8.06-3.53,10.75-2.35,2.7-5.53,4.04-9.55,4.04s-7.22-1.38-9.63-4.13-3.61-6.3-3.61-10.66v-86.86c0-2.52,.14-4.44,.43-5.76,.29-1.32,.89-2.61,1.81-3.87,2.52-3.78,5.96-5.68,10.32-5.68,2.41,0,4.5,.52,6.28,1.55,1.78,1.03,3.81,3.04,6.11,6.02l48.16,60.72v-50.74Z"/><path class="cls-2" d="M397.35,776.47v2.92c-.12,4.47-1.35,8.06-3.7,10.75-2.35,2.7-5.53,4.04-9.55,4.04s-7.05-1.38-9.46-4.13c-2.41-2.75-3.61-6.3-3.61-10.66v-77.06h-21.33c-4.13-.11-7.4-1.23-9.8-3.35-2.41-2.12-3.61-5.01-3.61-8.69s1.23-6.45,3.7-8.69c2.46-2.24,5.7-3.35,9.72-3.35h68.97c4.01,.12,7.25,1.23,9.72,3.35,2.46,2.12,3.7,5.02,3.7,8.69s-1.23,6.59-3.7,8.77c-2.47,2.18-5.71,3.27-9.72,3.27h-21.33v74.13Z"/><path class="cls-2" d="M556.09,723.67h29.24c3.67,.12,6.62,1.12,8.86,3.01,2.24,1.89,3.35,4.5,3.35,7.83s-1.12,5.99-3.35,8c-2.24,2.01-5.19,3.01-8.86,3.01h-29.24v23.39h37.67c4.01,.12,7.25,1.23,9.72,3.35,2.46,2.12,3.7,5.02,3.7,8.69s-1.23,6.59-3.7,8.77c-2.47,2.18-5.71,3.27-9.72,3.27h-48.68c-10.21-.23-15.31-5.33-15.31-15.31v-84.11c.23-10.2,5.33-15.31,15.31-15.31h47.82c4.01,.12,7.22,1.23,9.63,3.35,2.41,2.12,3.61,5.02,3.61,8.69s-1.2,6.59-3.61,8.77c-2.41,2.18-5.62,3.27-9.63,3.27h-36.81v21.33Z"/><path class="cls-2" d="M733.42,776.47v2.92c0,4.47-1.18,8.06-3.53,10.75-2.35,2.7-5.53,4.04-9.55,4.04s-7.22-1.38-9.63-4.13-3.61-6.3-3.61-10.66v-85.83c.23-10.2,5.33-15.31,15.31-15.31h20.81c6.76,0,12.38,.54,16.86,1.63,4.47,1.09,8.54,2.84,12.21,5.25,5.96,3.9,10.66,8.97,14.1,15.22,3.44,6.25,5.16,12.81,5.16,19.69,0,8.03-2.27,14.96-6.79,20.81-4.53,5.85-10.98,10.26-19.35,13.24l19.61,14.28c4.82,3.67,7.22,7.74,7.22,12.21,0,3.67-1.23,6.82-3.7,9.46-2.47,2.64-5.53,3.96-9.2,3.96-2.87,0-5.91-1.26-9.12-3.78l-36.81-30.1v16.34Zm9.98-39.04c3.9,0,6.91-.2,9.03-.6,2.12-.4,3.98-1.06,5.59-1.98,2.52-1.6,4.5-3.7,5.93-6.28,1.43-2.58,2.15-5.36,2.15-8.34,0-3.32-.89-6.36-2.67-9.12-1.78-2.75-4.16-4.87-7.14-6.36-.8-.34-1.58-.63-2.32-.86-.75-.23-1.58-.4-2.49-.52-.92-.11-2.06-.2-3.44-.26-1.38-.06-3.1-.09-5.16-.09h-9.46v34.4h9.98Z"/><path class="cls-2" d="M912.81,773.38l-3.61,8.43-1.03,2.58c-2.87,6.19-7.17,9.29-12.9,9.29-3.56,0-6.65-1.23-9.29-3.7-2.64-2.46-3.96-5.42-3.96-8.86,0-2.18,.63-4.64,1.89-7.4l1.2-2.58,38.01-85.14c2.41-5.39,6.59-8.08,12.56-8.08,2.75,0,5.25,.69,7.48,2.06s3.93,3.38,5.07,6.02l39.04,84.8c1.26,2.75,2.06,4.76,2.41,6.02,.34,1.26,.52,2.7,.52,4.3,0,3.44-1.32,6.42-3.96,8.94-2.64,2.52-5.73,3.78-9.29,3.78-5.85,0-10.15-3.04-12.9-9.12l-1.2-2.75-3.96-8.6h-46.1Zm23.05-55.9l-13.59,33.02h27.52l-13.93-33.02Z"/><path class="cls-2" d="M1078.09,735.54c0-8.14,1.55-15.79,4.64-22.96,3.1-7.17,7.34-13.42,12.73-18.75,5.39-5.33,11.67-9.55,18.83-12.64,7.16-3.1,14.82-4.64,22.96-4.64,13.76,0,26.26,4.59,37.5,13.76,3.32,2.75,5.7,5.22,7.14,7.4,1.43,2.18,2.15,4.59,2.15,7.22,0,3.56-1.23,6.57-3.7,9.03-2.47,2.47-5.53,3.7-9.2,3.7-3.33,0-6.54-1.38-9.63-4.13l-2.75-2.58c-2.87-2.64-6.19-4.67-9.98-6.11-3.78-1.43-7.68-2.15-11.7-2.15-4.47,0-8.72,.86-12.73,2.58-4.02,1.72-7.48,4.1-10.41,7.14-2.92,3.04-5.25,6.57-6.97,10.58-1.72,4.01-2.58,8.26-2.58,12.73s.86,8.72,2.58,12.73c1.72,4.01,4.1,7.51,7.14,10.49,3.04,2.98,6.56,5.33,10.58,7.05,4.01,1.72,8.26,2.58,12.73,2.58,3.67,0,7.4-.66,11.18-1.98,3.78-1.32,6.82-3.01,9.12-5.07l4.64-4.3c2.86-2.75,6.13-4.13,9.8-4.13s6.59,1.26,9.12,3.78c2.52,2.52,3.78,5.56,3.78,9.12s-2.06,7.57-6.19,11.7c-5.28,5.28-11.61,9.43-19.01,12.47s-14.88,4.56-22.45,4.56c-8.14,0-15.8-1.58-22.96-4.73-7.17-3.15-13.45-7.4-18.83-12.73-5.39-5.33-9.66-11.58-12.81-18.75-3.16-7.16-4.73-14.82-4.73-22.96Z"/><path class="cls-2" d="M1333.5,776.47v2.92c-.12,4.47-1.35,8.06-3.7,10.75-2.35,2.7-5.53,4.04-9.55,4.04s-7.05-1.38-9.46-4.13c-2.41-2.75-3.61-6.3-3.61-10.66v-77.06h-21.33c-4.13-.11-7.4-1.23-9.8-3.35-2.41-2.12-3.61-5.01-3.61-8.69s1.23-6.45,3.7-8.69c2.46-2.24,5.7-3.35,9.72-3.35h68.97c4.01,.12,7.25,1.23,9.72,3.35,2.46,2.12,3.7,5.02,3.7,8.69s-1.23,6.59-3.7,8.77c-2.47,2.18-5.71,3.27-9.72,3.27h-21.33v74.13Z"/><path class="cls-2" d="M1492.25,776.47v2.92c0,4.47-1.18,8.06-3.53,10.75-2.35,2.7-5.53,4.04-9.55,4.04s-7.22-1.38-9.63-4.13-3.61-6.3-3.61-10.66v-87.55c.11-4.47,1.35-8.03,3.7-10.66,2.35-2.64,5.53-3.96,9.55-3.96s7.19,1.35,9.55,4.04c2.35,2.7,3.53,6.22,3.53,10.58v84.62Z"/><path class="cls-2" d="M1670.26,689.27c1.83-4.7,3.75-7.91,5.76-9.63,2-1.72,4.67-2.58,8-2.58,1.72,0,3.35,.34,4.9,1.03,1.55,.69,2.92,1.61,4.13,2.75,1.2,1.15,2.15,2.47,2.84,3.96,.69,1.49,1.03,3.1,1.03,4.82,0,2.41-.52,4.82-1.55,7.22l-1.2,2.58-36.64,84.11c-2.98,6.65-7.22,9.98-12.73,9.98-5.96,0-10.38-3.32-13.24-9.98l-36.29-83.94-1.2-2.58c-1.15-2.41-1.72-4.87-1.72-7.4,0-1.72,.37-3.32,1.12-4.82,.74-1.49,1.72-2.81,2.92-3.96,1.2-1.15,2.61-2.06,4.21-2.75,1.6-.69,3.27-1.03,4.99-1.03,3.32,0,5.99,.89,8,2.67,2,1.78,3.93,5.02,5.76,9.72l25.28,63.12,25.63-63.3Z"/><path class="cls-2" d="M1823.34,723.67h29.24c3.67,.12,6.62,1.12,8.86,3.01,2.24,1.89,3.35,4.5,3.35,7.83s-1.12,5.99-3.35,8c-2.24,2.01-5.19,3.01-8.86,3.01h-29.24v23.39h37.67c4.01,.12,7.25,1.23,9.72,3.35,2.46,2.12,3.7,5.02,3.7,8.69s-1.23,6.59-3.7,8.77c-2.47,2.18-5.71,3.27-9.72,3.27h-48.68c-10.21-.23-15.31-5.33-15.31-15.31v-84.11c.23-10.2,5.33-15.31,15.31-15.31h47.82c4.01,.12,7.22,1.23,9.63,3.35,2.41,2.12,3.61,5.02,3.61,8.69s-1.2,6.59-3.61,8.77c-2.41,2.18-5.62,3.27-9.63,3.27h-36.81v21.33Z"/></g></g></g></svg>
